<?xml version="1.0" standalone="no"?>
<!DOCTYPE svg PUBLIC "-//W3C//DTD SVG 20010904//EN"
 "http://www.w3.org/TR/2001/REC-SVG-20010904/DTD/svg10.dtd">
<svg version="1.0" xmlns="http://www.w3.org/2000/svg"
 width="500.000000pt" height="500.000000pt" viewBox="0 0 500.000000 500.000000"
 preserveAspectRatio="xMidYMid meet">

<g transform="translate(0.000000,500.000000) scale(0.100000,-0.100000)"
fill="#000000" stroke="none">
<path d="M1000 4298 c-18 -13 -43 -36 -54 -51 -21 -28 -21 -30 -24 -1148 l-2
-1119 -104 0 c-87 0 -105 -3 -119 -18 -15 -16 -17 -49 -17 -250 0 -283 -14
-262 172 -262 l128 0 0 -369 0 -370 22 -15 c18 -13 57 -16 215 -16 251 0 233
-17 233 209 l0 170 340 3 c324 3 340 4 359 23 33 35 35 62 7 90 l-25 25 -336
0 -335 0 0 120 0 120 1040 0 1040 0 0 -120 0 -119 -281 -3 c-264 -3 -281 -4
-295 -22 -19 -27 -18 -59 5 -87 l19 -24 281 -3 281 -3 0 -170 c0 -226 -19
-209 235 -209 182 0 196 1 215 20 19 19 20 33 20 385 l0 365 134 0 c128 0 136
1 150 22 24 33 24 453 0 486 -15 21 -20 22 -210 22 -107 0 -194 4 -194 9 0 4
66 46 146 92 87 49 154 95 166 112 32 45 35 114 8 168 -13 24 -162 287 -333
584 -170 297 -389 677 -485 845 -302 527 -293 515 -385 515 -56 0 -64 -4 -359
-177 -65 -38 -124 -71 -133 -74 -13 -5 -15 6 -15 78 0 72 -3 88 -24 119 -47
69 -56 70 -418 65 -389 -6 -315 -6 -709 0 l-325 5 -34 -23z m2086 -228 c31
-55 57 -108 58 -117 2 -24 -485 -306 -500 -290 -6 7 -37 57 -68 112 -39 66
-55 104 -50 113 12 18 465 280 486 281 11 1 35 -32 74 -99z m190 -326 c21 -37
33 -69 28 -74 -12 -11 -486 -281 -498 -283 -14 -3 -90 133 -80 143 21 20 498
289 505 284 5 -3 25 -34 45 -70z m-1626 -59 l0 -85 -297 2 -298 3 -3 83 -3 82
301 0 300 0 0 -85z m728 3 l-3 -83 -292 -3 -293 -2 0 85 0 85 295 0 296 0 -3
-82z m179 -150 c16 -29 128 -224 248 -433 422 -733 635 -1108 635 -1116 0 -5
-206 -9 -465 -9 l-465 0 0 805 c0 486 4 805 9 805 5 0 22 -24 38 -52z m897
-111 c38 -67 121 -212 184 -321 107 -185 114 -200 97 -212 -28 -20 -489 -279
-493 -277 -2 1 -79 135 -172 298 -93 162 -176 306 -185 319 l-16 24 138 80
c299 172 368 212 373 212 3 0 36 -55 74 -123z m416 -718 c23 -39 40 -72 38
-73 -5 -5 -408 -237 -463 -267 l-49 -28 -42 72 c-23 40 -39 75 -36 79 10 10
496 287 504 288 4 0 26 -32 48 -71z m-2225 -219 l0 -85 -295 0 -295 0 -3 74
c-2 41 -1 80 2 88 5 11 59 13 298 11 l293 -3 0 -85z m735 0 l0 -79 -295 -3
-295 -3 0 83 0 82 295 0 295 0 0 -80z m1666 -95 c59 -103 62 -111 46 -126 -29
-28 -475 -280 -486 -276 -17 7 -141 230 -130 234 5 2 117 66 249 142 132 77
244 138 249 137 5 -1 37 -51 72 -111z m144 -680 l0 -135 -1690 0 -1690 0 0
135 0 135 1690 0 1690 0 0 -135z m-2870 -590 l0 -315 -105 0 -105 0 0 315 0
315 105 0 105 0 0 -315z m2570 0 l0 -315 -105 0 -105 0 0 315 0 315 105 0 105
0 0 -315z"/>
<path d="M2433 1190 c-36 -15 -44 -42 -25 -80 22 -44 58 -53 179 -48 100 4
125 16 138 66 5 21 1 31 -20 49 -24 21 -36 23 -138 22 -62 0 -122 -4 -134 -9z"/>
</g>
</svg>
